<svg xmlns="http://www.w3.org/2000/svg" xmlns:xlink="http://www.w3.org/1999/xlink" width="48" height="48" viewBox="0 0 48 48">
    <defs>
        <circle id="a" cx="24" cy="24" r="24"/>
    </defs>
    <g fill="none" fill-rule="evenodd">
        <mask id="b" fill="#fff">
            <use xlink:href="#a"/>
        </mask>
        <use fill="#E6E2E1" xlink:href="#a"/>
        <path fill="#BFB7B6" fill-opacity=".6" d="M7 35.526v13.915h34V35.526c0-4.697-3.413-8.5-7.77-8.947-.319 0-.617.23-.83.454-2.019 2.572-4.894 4.02-8.4 4.02-3.506 0-6.381-1.448-8.4-4.02-.213-.224-.511-.454-.83-.454-4.356.447-7.77 4.25-7.77 8.947zm8.626-18.874c0 5.858 1.994 11.716 8.398 11.716 6.194 0 8.4-5.858 8.4-11.716 1.994-6.285-2.206-8.522-4.2-8.522-.105-2.023-2.415-2.13-4.2-2.13-8.293 0-10.078 6.924-8.398 10.652z" mask="url(#b)"/>
    </g>
</svg>
